<?xml version="1.0" standalone="no"?>
<!DOCTYPE svg PUBLIC "-//W3C//DTD SVG 20010904//EN"
 "http://www.w3.org/TR/2001/REC-SVG-20010904/DTD/svg10.dtd">
<svg version="1.0" xmlns="http://www.w3.org/2000/svg"
 width="657.000000pt" height="657.000000pt" viewBox="0 0 657.000000 657.000000"
 preserveAspectRatio="xMidYMid meet">
<metadata>
Created by potrace 1.14, written by Peter Selinger 2001-2017
</metadata>
<g transform="translate(0.000000,657.000000) scale(0.100000,-0.100000)"
fill="#000000" stroke="none">
<path d="M3261 6466 c-109 -230 -178 -376 -193 -411 -95 -222 -171 -433 -205
-575 -56 -232 -20 -398 115 -528 94 -91 195 -131 327 -130 124 2 215 36 306
116 63 56 100 113 130 202 57 171 16 373 -166 815 -84 203 -257 569 -274 579
-3 2 -21 -29 -40 -68z m79 -260 c0 -2 31 -69 70 -150 206 -433 285 -710 245
-861 -71 -265 -411 -356 -608 -163 -104 103 -133 240 -87 413 12 44 23 85 24
90 13 56 93 264 141 370 13 28 32 71 44 96 26 60 114 240 125 257 6 10 13 6
27 -17 10 -18 19 -33 19 -35z"/>
<path d="M1684 5997 c7 -133 9 -157 22 -302 9 -112 30 -294 40 -350 70 -409
116 -535 239 -647 203 -187 540 -148 694 80 60 89 81 166 78 281 -4 110 -23
168 -92 266 -57 81 -189 215 -316 321 -160 133 -543 415 -631 464 l-40 23 6
-136z m179 -134 c162 -105 395 -278 522 -387 218 -188 288 -304 278 -456 -20
-311 -400 -454 -621 -233 -49 49 -103 157 -122 243 -6 30 -15 66 -20 80 -5 14
-11 39 -14 55 -2 17 -11 73 -19 125 -14 89 -19 126 -32 260 -21 213 -28 340
-21 340 4 0 25 -12 49 -27z"/>
<path d="M4830 6048 c-282 -191 -433 -302 -595 -437 -309 -258 -408 -408 -400
-607 4 -75 6 -89 28 -150 66 -181 274 -314 466 -297 190 16 343 133 413 315
39 102 60 187 103 408 11 55 38 267 50 385 3 33 8 78 10 100 2 22 7 87 10 145
4 58 8 124 10 148 3 28 0 42 -8 41 -7 0 -46 -23 -87 -51z m-43 -175 c-3 -5 -8
-60 -12 -123 -3 -63 -8 -126 -10 -140 -1 -14 -6 -65 -10 -115 -4 -49 -8 -92
-10 -95 -1 -3 -6 -32 -9 -65 -4 -33 -9 -67 -11 -75 -2 -8 -7 -30 -10 -47 -3
-18 -7 -48 -10 -65 -13 -74 -57 -217 -85 -273 -16 -34 -46 -78 -67 -99 -37
-36 -109 -85 -135 -90 -7 -2 -22 -7 -32 -11 -11 -5 -52 -9 -90 -8 -179 0 -326
119 -363 293 -2 8 -3 43 -4 76 0 115 43 196 175 328 134 135 254 227 626 484
44 30 66 40 57 25z"/>
<path d="M5967 4913 c-1 0 -42 -4 -92 -7 -95 -7 -165 -13 -255 -22 -30 -4 -66
-7 -80 -9 -273 -27 -569 -94 -689 -155 -285 -144 -353 -504 -138 -736 144
-155 370 -193 559 -92 170 91 422 373 742 833 54 77 104 152 112 167 l14 28
-86 -3 c-47 -1 -86 -3 -87 -4z m-123 -179 c-53 -83 -241 -351 -283 -404 -163
-205 -279 -318 -371 -363 -59 -29 -73 -32 -160 -32 -83 0 -102 4 -151 27 -279
134 -283 518 -8 658 83 43 292 97 444 116 22 3 49 7 61 9 11 2 45 7 75 10 30
3 72 8 94 11 22 2 74 7 115 10 41 3 76 7 77 8 1 1 34 3 73 4 l71 3 -37 -57z"/>
<path d="M490 4895 c0 -7 86 -138 178 -272 63 -91 271 -367 312 -413 140 -158
184 -204 249 -258 77 -66 167 -118 222 -127 18 -3 36 -8 40 -10 4 -3 33 -5 65
-6 148 -2 264 47 358 152 165 183 163 455 -5 634 -131 140 -419 217 -1034 280
-156 15 -385 28 -385 20z m410 -139 c175 -11 269 -20 355 -32 17 -2 46 -6 65
-8 154 -20 349 -70 422 -107 67 -34 136 -106 169 -177 26 -54 32 -78 32 -141
4 -257 -234 -433 -478 -355 -141 45 -344 259 -622 656 -62 88 -113 164 -113
168 0 4 15 7 33 5 17 -2 79 -6 137 -9z"/>
<path d="M5160 3741 c-285 -89 -417 -419 -270 -676 84 -147 239 -234 415 -233
201 1 650 163 1150 415 l100 51 -188 91 c-103 50 -189 91 -191 91 -3 0 -37 15
-78 34 -184 85 -501 198 -641 229 -92 20 -228 19 -297 -2z m327 -105 c164 -42
434 -149 711 -284 l84 -41 -54 -27 c-120 -62 -354 -174 -363 -174 -3 0 -28
-11 -57 -25 -95 -44 -327 -122 -421 -141 -48 -10 -146 -5 -194 9 -149 44 -255
180 -260 333 -4 137 49 242 161 319 100 68 212 77 393 31z"/>
<path d="M1288 3745 c-1 -1 -23 -5 -48 -8 -177 -22 -443 -112 -780 -265 -170
-76 -400 -190 -400 -197 0 -9 344 -174 510 -245 411 -176 668 -240 835 -209
172 32 322 183 359 361 55 265 -134 528 -399 554 -27 3 -55 7 -62 9 -6 2 -13
2 -15 0z m177 -134 c140 -66 217 -191 211 -344 -5 -150 -96 -275 -238 -328
-54 -20 -151 -27 -218 -14 -131 24 -356 101 -550 188 -130 58 -200 91 -269
125 l-75 36 160 78 c254 124 522 236 604 253 8 2 42 10 75 18 128 33 212 29
300 -12z"/>
<path d="M5007 2764 c-1 -1 -22 -4 -47 -7 -173 -21 -331 -164 -379 -345 -12
-43 -15 -151 -7 -192 3 -14 8 -38 12 -55 20 -96 134 -229 244 -285 96 -48 260
-95 440 -124 19 -3 44 -7 55 -10 11 -2 47 -7 80 -11 83 -10 100 -12 142 -19
21 -3 70 -8 108 -12 39 -3 86 -7 105 -9 19 -2 71 -7 115 -10 187 -13 235 -14
235 -4 0 14 -168 263 -283 419 -180 243 -355 442 -482 548 -67 56 -172 101
-259 110 -42 5 -77 7 -79 6z m107 -89 c152 -33 374 -267 698 -739 37 -55 68
-103 68 -107 0 -4 -15 -6 -32 -4 -18 2 -82 6 -143 9 -60 4 -126 9 -145 10
-139 14 -187 19 -204 22 -10 2 -44 6 -75 10 -31 3 -58 8 -61 9 -3 2 -26 6 -50
10 -84 12 -235 55 -298 86 -176 86 -260 291 -192 471 39 104 153 203 263 228
35 8 125 5 171 -5z"/>
<path d="M1547 2754 c-2 -2 -21 -6 -43 -10 -127 -19 -265 -128 -489 -384 -96
-110 -306 -392 -433 -582 l-71 -106 102 3 c56 3 131 7 167 10 231 19 294 25
317 29 10 2 50 7 88 11 137 14 395 65 501 100 174 57 270 131 334 258 152 301
-58 656 -397 672 -39 1 -74 1 -76 -1z m148 -99 c75 -20 119 -46 176 -107 122
-128 126 -348 9 -482 -72 -82 -186 -134 -375 -172 -91 -18 -180 -34 -221 -39
-27 -4 -60 -8 -74 -10 -14 -3 -56 -7 -95 -10 -38 -3 -79 -8 -90 -10 -11 -2
-63 -7 -115 -10 -52 -4 -107 -8 -122 -10 -16 -1 -28 0 -28 3 0 18 245 372 347
500 99 125 244 270 307 307 89 52 182 65 281 40z"/>
<path d="M4200 2050 c-55 -14 -127 -47 -168 -77 -191 -142 -248 -376 -143
-595 79 -165 407 -454 879 -776 l152 -104 -5 109 c-5 112 -12 209 -20 303 -3
30 -7 78 -10 105 -2 28 -6 64 -9 80 -3 17 -7 57 -11 90 -5 54 -10 89 -21 150
-2 11 -11 58 -19 105 -27 155 -75 310 -120 386 -57 98 -186 197 -285 220 -46
11 -184 13 -220 4z m220 -107 c91 -33 167 -100 211 -185 38 -74 96 -316 113
-469 4 -31 9 -67 11 -79 2 -12 7 -55 10 -94 3 -39 8 -88 10 -109 3 -21 7 -88
11 -149 l6 -111 -38 23 c-109 66 -388 268 -494 358 -248 210 -326 326 -322
480 5 244 257 418 482 335z"/>
<path d="M2200 2012 c-210 -55 -335 -230 -400 -557 -5 -27 -11 -59 -14 -70 -5
-28 -19 -107 -21 -125 -2 -22 -16 -121 -20 -150 -13 -85 -31 -261 -40 -385
-14 -199 -16 -245 -10 -245 3 0 67 41 143 91 482 322 824 623 902 793 40 90
55 200 37 286 -21 106 -98 225 -188 292 -103 77 -257 104 -389 70z m240 -89
c100 -36 174 -109 216 -211 19 -47 23 -72 21 -142 -4 -120 -38 -189 -155 -307
-113 -114 -150 -146 -307 -263 -128 -95 -379 -270 -389 -270 -2 0 -3 12 -1 28
2 15 7 72 10 127 3 55 8 118 10 140 2 22 7 69 10 105 4 36 8 79 11 95 2 17 6
44 8 60 2 17 7 46 10 65 3 19 8 46 10 60 25 145 72 299 112 362 92 145 275
209 434 151z"/>
<path d="M3260 1763 c-188 -26 -339 -157 -392 -338 -40 -134 -9 -315 105 -625
77 -208 282 -659 336 -739 22 -33 292 561 394 870 76 227 94 374 60 494 -40
144 -155 266 -298 315 -53 18 -156 30 -205 23z m168 -99 c96 -32 170 -98 216
-194 27 -58 31 -75 30 -155 0 -132 -58 -331 -169 -580 -8 -16 -23 -52 -36 -80
-48 -109 -149 -315 -154 -315 -9 0 -167 332 -220 461 -146 356 -176 542 -109
675 84 167 268 245 442 188z"/>
</g>
</svg>
